<svg width="40" height="40" viewBox="0 0 40 40" fill="none" xmlns="http://www.w3.org/2000/svg">
<path fill-rule="evenodd" clip-rule="evenodd" d="M20.1371 31.269C20.7215 31.7506 21.4067 31.956 22.1463 31.994C22.4522 32.0099 22.7669 31.995 23.0679 31.9404C23.5453 31.8539 24.0214 31.7454 24.4858 31.606C25.4315 31.3216 26.2487 30.8302 26.8589 30.0366C27.2065 29.5843 27.4918 29.0952 27.6751 28.5544C27.8264 28.1082 27.9686 27.6575 28.0818 27.2009C28.1711 26.8411 28.2155 26.4697 28.2696 26.1022C28.3058 25.8591 28.3277 25.6134 28.3502 25.368C28.3867 24.9699 28.4248 24.5725 28.4513 24.1734C28.4698 23.8959 28.4692 23.6171 28.4799 23.3392C28.4835 23.2544 28.4972 23.1702 28.5054 23.086C28.5122 23.0077 28.552 22.9807 28.6322 22.982C28.914 22.9863 29.1964 22.9934 29.4778 22.9807C29.7932 22.9668 30.1108 22.9531 30.4213 22.9015C30.8631 22.8277 31.3013 22.7345 31.7348 22.622C32.2462 22.4884 32.7154 22.2495 33.1674 21.9779C33.6931 21.661 34.1731 21.2896 34.5615 20.8109C34.9004 20.3943 35.0608 19.9113 34.9789 19.3846C34.8602 18.6192 34.2149 18.1178 33.4645 18.0837C33.1925 18.0713 32.9166 18.0999 32.646 18.134C32.3182 18.1756 31.9954 18.2491 31.6686 18.2975C31.443 18.3313 31.2144 18.3463 30.9893 18.3696L30.9831 18.3404C31.4038 17.5484 31.8421 16.7656 32.24 15.9629C32.5455 15.3467 32.8064 14.7088 33.0761 14.0751C33.5229 13.0261 33.8793 11.9449 34.1748 10.8455C34.4575 9.79318 34.6995 8.72953 34.7761 7.63761C34.8068 7.20182 34.828 6.76407 34.825 6.32763C34.8231 5.97925 34.7852 5.63055 34.7503 5.28348C34.7106 4.8857 34.5899 4.50873 34.4229 4.14606C34.2031 3.66769 33.8617 3.27544 33.5027 2.90302C33.2154 2.60469 32.899 2.33301 32.5856 2.06133C32.1385 1.67396 31.6357 1.36425 31.1139 1.08965C30.5225 0.776581 29.8959 0.534411 29.2473 0.368199C28.8521 0.268892 28.4543 0.179926 28.0544 0.101393C27.9122 0.0727948 27.7687 0 27.6255 0H24.9293C24.8318 0 24.7353 0.0636955 24.6371 0.0744198C23.9918 0.144609 23.3547 0.275731 22.7343 0.466017C22.5027 0.537187 22.2914 0.49559 22.0713 0.475116C21.9024 0.459517 21.7364 0.416296 21.5675 0.407846C20.9247 0.375998 20.2813 0.329852 19.6382 0.336676C19.0225 0.343176 18.413 0.444569 17.8172 0.612907C17.3186 0.754597 16.8304 0.926509 16.383 1.18812C16.1919 1.29991 16.0399 1.27878 15.842 1.22224C15.1772 1.02816 14.5066 0.854326 13.8312 0.700975C13.4102 0.607057 12.9768 0.55961 12.5467 0.515413C12.1339 0.472685 11.7195 0.44699 11.3045 0.438394C10.8995 0.42962 10.4919 0.429945 10.0885 0.465692C9.44636 0.522563 8.81665 0.652554 8.20422 0.862489C7.52913 1.0925 6.89832 1.43549 6.33889 1.87674C5.7682 2.32684 5.31034 2.87572 4.94282 3.50325C4.55508 4.16523 4.28865 4.874 4.12364 5.61788C4.03396 6.02117 4.0669 6.43584 4.00526 6.84531C3.98635 6.97206 4.0245 7.09945 4.0245 7.22684V9.00934C4.0245 9.12763 3.98961 9.24625 4.00461 9.36519C4.04146 9.65084 4.02874 9.93877 4.07733 10.2225C4.15364 10.6716 4.22245 11.1191 4.31506 11.565C4.44453 12.1879 4.56812 12.8103 4.71161 13.4303C4.81597 13.8817 4.92912 14.3305 5.05337 14.7767C5.24251 15.4585 5.42709 16.1413 5.64134 16.815C5.84059 17.4412 6.06757 18.0583 6.29421 18.6758C6.60477 19.5296 6.98543 20.3564 7.43233 21.1479C7.82202 21.8339 8.26651 22.4764 8.86328 23.0045C9.2569 23.3528 9.69421 23.6203 10.2033 23.7542C10.6009 23.8594 11.0177 23.871 11.4206 23.788C11.8877 23.6934 12.324 23.4852 12.6908 23.1819C12.7339 23.1471 12.7805 23.1202 12.8317 23.1845C13.0254 23.4289 13.2843 23.592 13.5553 23.7327C14.2865 24.113 15.0831 24.227 15.8922 24.2732C16.0885 24.2842 16.2861 24.2563 16.4834 24.2511C16.8686 24.2404 17.2423 24.1656 17.6098 24.0597C17.8029 24.0041 17.991 23.9333 18.1873 23.8676C18.1975 24.0759 18.2105 24.2761 18.217 24.4766L18.2441 25.5695C18.2493 25.7359 18.2558 25.9023 18.2712 26.068C18.3109 26.495 18.3497 26.9221 18.4009 27.3478C18.4362 27.6412 18.4733 27.9366 18.5425 28.2233C18.6815 28.8009 18.8716 29.3651 19.1106 29.9093C19.3393 30.4374 19.6913 30.9036 20.1371 31.269ZM18.9661 25.8197C18.9429 25.3066 18.9257 24.7932 18.9142 24.2797C18.9005 23.6486 18.896 23.0171 18.8872 22.386L18.8855 22.362C18.5637 22.5547 18.2464 22.7653 17.9108 22.9391C17.5172 23.1429 17.09 23.2609 16.6475 23.2944C16.3008 23.3203 15.9489 23.3441 15.6039 23.3168C15.0378 23.271 14.4717 23.1829 13.9649 22.9047C13.7595 22.7919 13.5449 22.6545 13.403 22.4748C13.0635 22.0429 13.2263 21.4972 13.7383 21.2346C14.0921 21.0527 14.4782 20.9769 14.8617 20.8885C15.1955 20.8131 15.5259 20.7231 15.8518 20.6188C16.1733 20.5138 16.3761 20.2539 16.5767 19.9988L16.8943 19.5919L16.5125 19.5522C16.1335 19.5171 15.7719 19.4128 15.4262 19.2601C15.1307 19.1298 15.1262 19.1155 14.909 19.3501C14.547 19.7417 14.1948 20.143 13.8397 20.5415C13.5785 20.8346 13.3192 21.1294 13.0587 21.4235C12.8017 21.7143 12.5604 22.0214 12.2828 22.2918C11.8713 22.6935 11.375 22.9349 10.7828 22.9076C10.4028 22.8901 10.0552 22.7575 9.74214 22.5407C9.09678 22.0929 8.66208 21.4657 8.26586 20.8076C7.75876 19.964 7.36906 19.0654 7.0361 18.1425C6.80555 17.5042 6.57368 16.8657 6.3728 16.2183C6.15398 15.5147 5.96191 14.803 5.77309 14.0907C5.63026 13.5535 5.50373 13.0118 5.38307 12.469C5.24416 11.8522 5.11566 11.233 4.99761 10.6118C4.91902 10.1923 4.87369 9.76653 4.8101 9.34439C4.72433 8.7747 4.70868 8.20047 4.73998 7.62883C4.7677 7.11375 4.84173 6.60028 4.91543 6.08877C5.0175 5.38097 5.25164 4.71314 5.58819 4.08236C5.79579 3.69798 6.05023 3.34062 6.34574 3.01839C6.83164 2.4825 7.41961 2.09545 8.07378 1.8046C8.53065 1.60149 9.01362 1.47962 9.50572 1.38375C10.2362 1.24206 10.9732 1.24791 11.7102 1.26286C12.0324 1.26969 12.3536 1.32786 12.6755 1.36003C13.3688 1.4286 14.0481 1.57419 14.7189 1.75325C15.208 1.88389 15.6871 2.05353 16.1717 2.20042C16.2199 2.21504 16.2914 2.21374 16.3315 2.18807C16.9886 1.7604 17.7063 1.47832 18.4704 1.31681C18.7603 1.25571 19.0597 1.22874 19.3561 1.20989C19.7161 1.18747 20.0797 1.16602 20.4391 1.18714C20.8712 1.21184 21.302 1.27521 21.7315 1.33371C21.9402 1.3623 22.1437 1.43412 22.3524 1.45362C22.4528 1.46305 22.5588 1.39058 22.6645 1.36588C23.2039 1.24141 23.741 1.1033 24.2852 1.00548C24.6903 0.932684 25.1044 0.898236 25.516 0.874838C25.9758 0.848515 26.4382 0.829341 26.8973 0.85144C27.4778 0.879388 28.0541 0.961607 28.6228 1.09355C29.3278 1.25701 30.0035 1.49424 30.6463 1.82377C31.1266 2.07043 31.5829 2.35576 31.9941 2.70673C32.2634 2.93714 32.5393 3.1643 32.7823 3.42103C33.0823 3.73756 33.3882 4.05376 33.5767 4.45901C33.7185 4.76481 33.8196 5.08134 33.8477 5.41574C33.8822 5.83204 33.9243 6.24963 33.9207 6.66658C33.9171 7.065 33.8624 7.4631 33.8239 7.86087C33.7355 8.7669 33.5382 9.65344 33.2979 10.5283C33.0973 11.2509 32.8701 11.9659 32.6166 12.6718C32.3854 13.3228 32.1183 13.9617 31.8486 14.5983C31.6499 15.0696 31.434 15.5337 31.2016 15.9895C30.7601 16.8514 30.3009 17.7044 29.7697 18.5169C29.6781 18.6569 29.591 18.8006 29.5016 18.9439C29.7335 19.0995 29.996 19.1545 30.2602 19.1831C30.5116 19.21 30.7679 19.2266 31.019 19.2078C31.4211 19.1779 31.8219 19.1207 32.2217 19.0651C32.6176 19.0099 33.0053 18.8977 33.4123 18.9273C33.818 18.9569 34.1089 19.2643 34.0812 19.6432C34.0636 19.8831 33.953 20.0888 33.7932 20.2646C33.0383 21.0946 32.0906 21.5976 31.0066 21.8456C30.5948 21.9398 30.1702 21.9883 29.7485 22.0276C29.3884 22.0593 29.0267 22.0677 28.6655 22.0529C28.4007 22.0432 28.1382 21.9827 27.8675 21.9437C27.8401 22.1904 27.8144 22.4475 27.7831 22.7035L27.6569 23.6859C27.6187 23.9973 27.589 24.3099 27.5496 24.6212C27.5111 24.9235 27.4631 25.2241 27.4227 25.526C27.3852 25.8071 27.3575 26.0898 27.3151 26.3706C27.2508 26.8009 27.1892 27.2321 27.1048 27.6591C27.0037 28.1693 26.8491 28.6633 26.5957 29.1238C26.2872 29.6857 25.8499 30.1137 25.2929 30.4305C24.719 30.7571 24.0912 30.9271 23.4556 31.0694C23.0049 31.1705 22.5415 31.1867 22.0853 31.1455C21.2945 31.0743 20.6195 30.7373 20.1091 30.126C19.6222 29.5427 19.2925 28.8745 19.1748 28.1177C19.1194 27.7575 19.0763 27.3956 19.0457 27.0326C19.0104 26.6289 18.9838 26.2245 18.9661 25.8197ZM19.8551 20.6351C19.86 20.9048 19.8319 21.1745 19.8332 21.4443C19.8388 22.6996 19.8479 23.9554 19.8586 25.2111C19.8606 25.4161 19.8707 25.6218 19.8854 25.8266C19.9164 26.2555 19.947 26.6848 19.9888 27.1125C20.0188 27.4164 20.0595 27.7192 20.1075 28.0208C20.176 28.4475 20.371 28.8277 20.5921 29.1914C20.7825 29.504 21.0307 29.7692 21.3571 29.9525C21.9121 30.2635 22.5092 30.2895 23.1112 30.1751C23.5179 30.0981 23.9177 29.9736 24.3123 29.8452C24.7007 29.7211 25.0552 29.5098 25.3487 29.2275C25.6255 28.9603 25.8218 28.6344 25.9542 28.2746C26.2109 27.5772 26.2914 26.8424 26.3974 26.1139C26.4372 25.8409 26.4718 25.5672 26.508 25.2939C26.5494 24.9829 26.5911 24.6723 26.6309 24.3612C26.6609 24.1292 26.6877 23.8975 26.716 23.6658C26.7568 23.333 26.7995 23.0006 26.8383 22.6678C26.868 22.4104 26.8928 22.1521 26.9195 21.894C26.9534 21.5642 26.9896 21.2353 27.0193 20.9048C27.0415 20.6546 27.0324 20.3995 27.077 20.1534C27.1589 19.7027 27.3728 19.3192 27.7739 19.0709C27.9415 18.9676 28.1313 18.8994 28.3172 18.8116L28.2853 18.7632C28.1134 18.5409 27.9373 18.3222 27.7687 18.0973C27.5039 17.7444 27.3135 17.3508 27.122 16.9553C26.9407 16.5803 26.719 16.2255 26.5282 15.8547C26.1952 15.2079 25.8561 14.5629 25.5492 13.9041C25.1634 13.0754 24.8595 12.2182 24.764 11.3004C24.7232 10.9124 24.7128 10.5244 24.792 10.1399C24.9182 9.52573 25.2397 9.04541 25.7811 8.71588C26.2833 8.4104 26.8426 8.31161 27.4155 8.28074C27.771 8.26157 28.1287 8.27716 28.4976 8.27716L28.4855 8.21509C28.2559 7.73673 28.0417 7.25024 27.7902 6.78357C27.4361 6.12452 26.9821 5.53046 26.4773 4.97897C26.1048 4.56891 25.6955 4.19363 25.2544 3.8578C24.8181 3.5286 24.3583 3.2345 23.8675 2.99434C23.2844 2.70533 22.6687 2.48712 22.0335 2.34438C21.4187 2.20854 20.8008 2.12535 20.1701 2.11852C19.6327 2.11268 19.0985 2.13737 18.5748 2.25794C17.7843 2.44025 17.0613 2.76458 16.4329 3.28974C16.0848 3.58049 15.7739 3.91271 15.5071 4.27897C15.1917 4.70957 14.938 5.17558 14.7208 5.66337C14.4228 6.33315 14.2183 7.02958 14.0781 7.74583C14.0083 8.1033 13.9535 8.46305 13.8977 8.8228C13.8782 8.94922 13.8769 9.07758 13.8651 9.2222L14.1038 9.09838L14.3367 8.99439C15.1249 8.63529 15.9411 8.40423 16.8183 8.43055C17.1914 8.4416 17.5475 8.51537 17.8795 8.67819C18.5154 8.99081 18.8872 9.52215 19.0489 10.1942C19.1605 10.6583 19.2371 11.1314 19.3114 11.6036C19.3695 11.9722 19.4292 12.3446 19.4357 12.7163C19.4451 13.2597 19.4178 13.8044 19.3881 14.3474C19.3627 14.8092 19.2668 15.2644 19.1037 15.6974C18.8089 16.4825 18.4802 17.255 18.1733 18.0356C18.0719 18.2936 17.994 18.5604 17.8984 18.8441L18.2858 18.8444C18.3328 18.8454 18.3807 18.8467 18.4261 18.8574C18.7786 18.9403 19.0848 19.0995 19.3356 19.3699C19.6708 19.7287 19.8463 20.1486 19.8551 20.6351ZM13.1219 16.9125C12.9221 16.4439 12.8016 15.9455 12.7652 15.4377C12.7312 14.9587 12.7883 14.4823 12.8379 14.0052C12.8855 13.5434 12.9259 13.0793 12.9396 12.6159C12.9628 11.8532 12.9113 11.0924 12.8747 10.3304C12.8529 9.8767 12.9057 9.41751 12.9461 8.96287C12.9827 8.55339 13.0283 8.14295 13.1063 7.73933C13.2364 7.06207 13.4095 6.39457 13.6558 5.74754C13.8889 5.13399 14.1576 4.537 14.5359 3.99917C14.7958 3.62999 15.09 3.28584 15.3727 2.92512L15.2886 2.89522C14.368 2.60404 13.432 2.37591 12.4691 2.27679C12.0141 2.22967 11.5573 2.20237 11.101 2.17507C10.9608 2.16695 10.8186 2.1858 10.6781 2.19912C10.3301 2.23259 9.97759 2.24559 9.63518 2.31059C9.05243 2.42108 8.49315 2.60697 7.97562 2.90952C7.51761 3.17809 7.11608 3.53244 6.79315 3.95302C6.43215 4.41806 6.18855 4.94387 6.01408 5.50414C5.80798 6.16546 5.7095 6.84629 5.68309 7.53297C5.65993 8.13515 5.64852 8.74058 5.75287 9.34049C5.83016 9.78668 5.88201 10.2381 5.96745 10.683C6.08231 11.2896 6.21126 11.8934 6.35421 12.4941C6.56064 13.3533 6.76739 14.2132 7.0123 15.062C7.24644 15.8748 7.51026 16.6804 7.79724 17.4766C8.03138 18.1262 8.30238 18.7638 8.58772 19.3927C8.77361 19.8025 8.99862 20.197 9.23472 20.5805C9.4855 20.988 9.77117 21.3747 10.1579 21.6704C10.6468 22.0435 11.0247 22.1017 11.5217 21.6919C11.7343 21.5167 11.914 21.2996 12.0992 21.0933C12.3931 20.7657 12.6768 20.4284 12.9696 20.0992C13.3424 19.6803 13.7197 19.2656 14.0944 18.848C14.1736 18.7599 14.2503 18.669 14.3272 18.5799L14.1991 18.4684C13.737 18.0286 13.3704 17.499 13.1219 16.9125ZM27.2557 4.43236C27.5622 4.78716 27.853 5.15517 28.1271 5.53533C28.6526 6.2696 29.0755 7.07162 29.3842 7.91936C29.5212 8.29471 29.6308 8.67364 29.5819 9.08408C29.548 9.37169 29.5502 9.66319 29.5251 9.95242C29.5039 10.1929 29.4654 10.4321 29.4345 10.6719C29.3875 11.0333 29.3197 11.394 29.2995 11.757C29.2799 12.1028 29.3004 12.4518 29.3223 12.7979C29.3441 13.1499 29.3917 13.5002 29.424 13.8512C29.4606 14.2499 29.5101 14.6477 29.5212 15.0471C29.5303 15.3747 29.501 15.7039 29.4726 16.0314C29.4362 16.4239 29.3405 16.8087 29.1889 17.1728C29.0836 17.4308 28.958 17.6804 28.8396 17.9384L28.8873 17.9885L28.9597 18.0443L29.033 17.9144C29.6488 16.9488 30.196 15.9414 30.6704 14.8995C30.9746 14.2271 31.2632 13.5477 31.5359 12.8619C31.9611 11.796 32.3046 10.6994 32.5635 9.58162C32.6809 9.07986 32.7709 8.57029 32.8504 8.06073C32.9127 7.66231 32.9643 7.25934 32.976 6.85734C32.9881 6.43097 32.9646 6.00135 32.9251 5.57628C32.8954 5.2552 32.8159 4.93218 32.6143 4.67057C32.2895 4.25037 31.9393 3.8487 31.5085 3.53055C31.1456 3.26309 30.7836 2.98784 30.3945 2.76295C29.7772 2.4058 29.109 2.16857 28.4108 2.00673C27.7289 1.84847 27.0389 1.78022 26.3443 1.7656C25.9347 1.75683 25.5231 1.8007 25.1145 1.83937C24.7441 1.87382 24.3759 1.93296 24.0031 1.98171C24.4033 2.20594 24.7982 2.40548 25.17 2.64044C25.9526 3.1344 26.6544 3.72879 27.2557 4.43236ZM17.0877 18.2644C17.3404 17.4584 17.6851 16.6882 18.0187 15.9141C18.2897 15.2859 18.4375 14.6246 18.4867 13.9448C18.5112 13.6097 18.5047 13.2704 18.488 12.9344C18.4718 12.5605 18.4374 12.1877 18.385 11.8171C18.3149 11.3446 18.2353 10.8718 18.1231 10.408C18.0015 9.90627 17.6949 9.5566 17.1692 9.42758C16.8493 9.34926 16.531 9.35251 16.2072 9.40353C15.4171 9.52735 14.6938 9.81756 14.02 10.2426C13.8844 10.3281 13.8094 10.3973 13.8332 10.5907C13.8827 11.0014 13.8935 11.4187 13.8915 11.8331C13.8889 12.4196 13.8638 13.0062 13.8416 13.5925C13.8345 13.7832 13.8067 13.9737 13.7859 14.1638C13.7546 14.455 13.6936 14.7458 13.6955 15.0367C13.6975 15.3363 13.7282 15.6428 13.8012 15.933C14.0331 16.8533 14.5235 17.606 15.328 18.1373C15.8227 18.4642 16.37 18.6287 16.971 18.6602C17.0108 18.5227 17.0476 18.393 17.0877 18.2644ZM16.1433 10.371C16.0373 10.1497 16.098 9.96607 16.3432 9.88092C16.4032 9.86045 16.4645 9.8377 16.5265 9.83185C16.6122 9.8234 16.6987 9.82958 16.7851 9.82958C17.0965 9.83153 17.3959 9.87475 17.6525 10.0717C17.8175 10.1984 17.8619 10.3658 17.7549 10.5387C17.6033 10.7834 17.3727 10.9062 17.089 10.9296C16.6426 10.9663 16.3292 10.759 16.1433 10.371ZM28.5272 10.2901L28.6287 9.40451C28.6433 9.28622 28.581 9.25372 28.4813 9.25079C28.1672 9.24235 27.8535 9.23097 27.5395 9.22577C27.186 9.21927 26.8413 9.27582 26.5138 9.40971C26.1506 9.55887 25.874 9.79741 25.7609 10.1916C25.6781 10.4821 25.6519 10.7857 25.6839 11.0859C25.728 11.5506 25.8336 12.0073 25.9979 12.4443C26.2177 13.027 26.4473 13.6094 26.7222 14.1677C27.0943 14.9233 27.515 15.6551 27.9102 16.3993C28.0156 16.5979 28.1049 16.8055 28.2148 17.0372C28.4368 16.5763 28.5579 16.0736 28.5703 15.5625C28.581 15.1397 28.5475 14.7159 28.5227 14.2931C28.5073 14.0345 28.4705 13.7771 28.4454 13.519C28.4105 13.1596 28.357 12.7999 28.3485 12.4395C28.3404 12.0729 28.3665 11.7044 28.3978 11.3381C28.4271 10.9878 28.4852 10.6397 28.5272 10.2901ZM27.8199 10.006C27.7032 10.3268 27.454 10.5081 27.1305 10.5611C26.8292 10.6108 26.565 10.5 26.3687 10.2602C26.2288 10.0896 26.2823 9.88775 26.492 9.77206C26.7327 9.63947 26.9971 9.606 27.3092 9.58585C27.3943 9.60112 27.5215 9.61444 27.6428 9.64857C27.8186 9.69796 27.8838 9.83055 27.8199 10.006ZM18.4939 19.8863C18.3217 19.7459 18.0934 19.7378 17.9297 19.8918C17.7262 20.0836 17.5472 20.3026 17.3682 20.5184C17.1617 20.768 16.9674 21.0273 16.7013 21.2207C16.3135 21.5018 15.8606 21.6181 15.406 21.7283C15.0447 21.816 14.6814 21.8976 14.3191 21.9814L14.3145 22.0282C14.4221 22.0776 14.5261 22.1397 14.6386 22.1751C15.1914 22.3493 15.7539 22.4364 16.3383 22.387C16.7596 22.3509 17.1614 22.2593 17.542 22.0796C18.066 21.8323 18.4694 21.44 18.8122 20.9844C18.8696 20.9084 18.8957 20.7959 18.9022 20.6978C18.9253 20.3514 18.7489 20.0937 18.4939 19.8863ZM28.5853 19.7362C28.3143 19.8268 28.0938 19.965 28.0283 20.2571C27.9836 20.4547 27.9673 20.6591 27.95 20.8616C27.9468 20.8973 27.9914 20.963 28.0254 20.9721C28.2341 21.027 28.4441 21.0917 28.6574 21.1108C28.9199 21.1346 29.1866 21.1271 29.4508 21.1141C29.7358 21.0998 30.0228 21.0813 30.3039 21.0345C30.9655 20.9233 31.6063 20.7433 32.1751 20.3689C32.3805 20.234 32.5834 20.0963 32.7875 19.9591L32.7705 19.9302C32.553 19.9624 32.3362 20.0017 32.1177 20.0248C31.6729 20.0722 31.2277 20.1223 30.7813 20.1479C30.5657 20.1603 30.3472 20.119 30.1301 20.1015C29.7655 20.0719 29.4094 19.9913 29.1012 19.7969C28.9235 19.6852 28.7748 19.6728 28.5853 19.7362Z" fill="white"/>
<path d="M0 32.17C0.469481 32.0899 0.944483 32.051 1.42009 32.0537C2.1509 32.0537 2.68683 32.2327 3.02689 32.5548C3.34145 32.8411 3.52849 33.2796 3.52849 33.8168C3.52849 34.3627 3.37513 34.7922 3.08608 35.1054C2.69501 35.5438 2.05739 35.7675 1.33475 35.7675C1.11371 35.7675 0.909671 35.7586 0.739966 35.7138V38.1302H0V32.17ZM0.739966 35.0782C0.901496 35.1229 1.10553 35.1408 1.35208 35.1408C2.24442 35.1408 2.78885 34.6844 2.78885 33.8523C2.78885 33.0559 2.25325 32.6711 1.4371 32.6711C1.11404 32.6711 0.86749 32.698 0.739966 32.7337V35.0782ZM8.00883 35.9282C8.00883 37.53 6.9543 38.2283 5.95962 38.2283C4.84591 38.2283 3.98725 37.3692 3.98725 35.9998C3.98725 34.5502 4.88842 33.7001 6.02763 33.7001C7.20968 33.6998 8.00883 34.6039 8.00883 35.9282ZM4.74422 35.973C4.74422 36.9215 5.26281 37.6373 5.99395 37.6373C6.70808 37.6373 7.24336 36.9304 7.24336 35.9551C7.24336 35.2213 6.89512 34.2907 6.01063 34.2907C5.12613 34.2907 4.74422 35.1498 4.74422 35.973ZM8.85016 37.3242C9.0712 37.4763 9.46227 37.6373 9.83634 37.6373C10.3804 37.6373 10.6355 37.351 10.6355 36.9931C10.6355 36.6173 10.4233 36.4114 9.87035 36.1967C9.13071 35.9193 8.78215 35.4898 8.78215 34.9708C8.78215 34.2728 9.31775 33.7001 10.2019 33.7001C10.6185 33.7001 10.9844 33.8254 11.2139 33.9686L11.0269 34.5413C10.7739 34.3772 10.4824 34.2904 10.1852 34.2907C9.74315 34.2907 9.49661 34.5592 9.49661 34.8813C9.49661 35.2392 9.74348 35.4003 10.2791 35.6151C10.9932 35.9014 11.3588 36.2772 11.3588 36.9215C11.3588 37.6821 10.7977 38.219 9.82 38.219C9.36941 38.219 8.95283 38.1026 8.66378 37.9237L8.85016 37.3242ZM13.2203 32.5544V33.7982H14.2912V34.3978H13.2203V36.7332C13.2203 37.2701 13.3645 37.5744 13.7814 37.5744C13.9276 37.5766 14.0733 37.5585 14.215 37.5207L14.249 38.1112C14.1048 38.1739 13.8749 38.2186 13.5862 38.2186C13.2376 38.2186 12.9568 38.1023 12.7782 37.8875C12.566 37.6549 12.4892 37.2701 12.4892 36.7601V34.3978H11.8515V33.7982H12.4892V32.7602L13.2203 32.5544ZM18.6273 33.7986C18.61 34.1118 18.5933 34.4607 18.5933 34.9887V37.5031C18.5933 38.4964 18.4063 39.1048 18.0067 39.481C17.6071 39.8747 17.029 40 16.5104 40C16.0173 40 15.4732 39.8747 15.1413 39.6421L15.3284 39.0425C15.6004 39.2215 16.0255 39.3826 16.5356 39.3826C17.3007 39.3826 17.8618 38.962 17.8618 37.8703V37.3871H17.8448C17.6153 37.7898 17.1732 38.1119 16.5356 38.1119C15.5154 38.1119 14.7843 37.1992 14.7843 35.9998C14.7843 34.5323 15.6939 33.7001 16.6376 33.7001C17.3521 33.7001 17.7432 34.0939 17.9217 34.4518H17.9387L17.9727 33.7986H18.6273ZM17.8537 35.5077C17.8537 35.3735 17.8452 35.2571 17.8112 35.1498C17.6751 34.6934 17.3096 34.3176 16.7655 34.3176C16.051 34.3176 15.5412 34.9529 15.5412 35.9551C15.5412 36.8052 15.9493 37.5121 16.757 37.5121C17.2161 37.5121 17.6326 37.2078 17.7942 36.7067C17.8367 36.5725 17.854 36.4204 17.854 36.2862L17.8537 35.5077ZM19.7832 35.1498C19.7832 34.6397 19.7747 34.2012 19.7492 33.7986H20.4042L20.4293 34.6487H20.4633C20.6504 34.067 21.101 33.7001 21.6026 33.7001C21.6876 33.7001 21.7468 33.7091 21.8148 33.727V34.4697C21.7311 34.4505 21.6456 34.4415 21.56 34.4428C21.0329 34.4428 20.6585 34.8634 20.5569 35.454C20.5359 35.5751 20.5245 35.6978 20.5228 35.8209V38.1295H19.7832V35.1498ZM22.8951 36.1072C22.9121 37.172 23.5579 37.6105 24.3061 37.6105C24.842 37.6105 25.1647 37.5121 25.4453 37.3868L25.5728 37.9505C25.3092 38.0758 24.8587 38.219 24.204 38.219C22.9373 38.219 22.1807 37.3421 22.1807 36.0356C22.1807 34.7292 22.9118 33.6998 24.1105 33.6998C25.4538 33.6998 25.8108 34.9436 25.8108 35.74C25.8108 35.9011 25.7938 36.0263 25.7853 36.1069L22.8951 36.1072ZM25.0885 35.5435C25.0967 35.0424 24.8927 34.2639 24.0513 34.2639C23.2947 34.2639 22.9631 34.9976 22.9033 35.5435H25.0885ZM26.661 37.181C27.0618 37.4344 27.5197 37.5703 27.9872 37.5747C28.7439 37.5747 29.186 37.1541 29.186 36.5457C29.186 35.9819 28.8799 35.6598 28.1063 35.3466C27.1711 34.9976 26.593 34.4876 26.593 33.6375C26.593 32.698 27.3326 32 28.4463 32C29.0329 32 29.458 32.1432 29.7131 32.2953L29.509 32.9306C29.1746 32.7414 28.8005 32.6429 28.4208 32.6443C27.6387 32.6443 27.3411 33.1364 27.3411 33.548C27.3411 34.1118 27.6894 34.3892 28.4803 34.7113C29.4495 35.1054 29.9426 35.5972 29.9426 36.483C29.9426 37.4136 29.288 38.219 27.9362 38.219C27.3836 38.219 26.78 38.049 26.4736 37.8342L26.661 37.181ZM35.6812 39.0154C34.9421 38.8112 34.2105 38.5784 33.4878 38.3174C33.3688 38.2727 33.2497 38.2279 33.1392 38.2279C31.779 38.1742 30.6142 37.1183 30.6142 35.1766C30.6142 33.2438 31.7364 32 33.2837 32C34.8395 32 35.8515 33.2706 35.8515 35.0513C35.8515 36.5994 35.1714 37.5926 34.2192 37.9416V37.9774C34.7888 38.1295 35.4095 38.2727 35.8941 38.3621L35.6812 39.0154ZM35.0691 35.0871C35.0691 33.8791 34.4743 32.635 33.2582 32.635C32.0085 32.635 31.3964 33.8519 31.4049 35.1587C31.3964 36.4383 32.068 37.5926 33.2242 37.5926C34.4063 37.5926 35.0691 36.4651 35.0691 35.0871ZM36.8116 32.0984H37.5515V37.4763H40V38.1295H36.8116V32.0984Z" fill="white"/>
</svg>
