<svg width="60" height="21" viewBox="0 0 60 21" fill="none" xmlns="http://www.w3.org/2000/svg">
<path d="M18.8075 0C18.34 0 17.8525 0.0273758 17.3525 0.0871056L17.6425 0.978074C18.0804 0.935771 18.5201 0.915834 18.96 0.918344H19.11L18.81 0H18.8075ZM24.595 0.890969L24.535 1.88646C25.035 2.05321 25.52 2.22991 26.005 2.42652L26.07 1.42107C25.9325 1.34641 25.55 1.16224 24.595 0.890969ZM12.125 1.46338C11.7248 1.66799 11.3305 1.88377 10.9425 2.11045L11.6425 3.17066C12.035 2.92925 12.4125 2.69779 12.8075 2.50367L12.125 1.46338ZM19.35 1.51813C18.8041 1.50879 18.2582 1.53123 17.715 1.58533C16.6075 1.68488 15.4425 2.00593 14.265 2.51861C10.72 4.05665 7.07 7.29201 4.6825 11.2541C2.295 15.2137 1.455 18.7203 1.1825 20.221C1.09 20.7237 1.0575 21 1.0575 21H13.0325C13.0325 21 12.89 20.3529 12.7925 19.3126C12.7377 18.7069 12.7102 18.099 12.71 17.4909C12.71 16.1221 12.8475 14.4969 13.32 12.8668C13.5567 12.0292 13.8863 11.2203 14.3025 10.4552C14.7275 9.67374 15.255 8.91716 15.9175 8.23027C16.58 7.54338 17.3775 6.92368 18.325 6.39855C18.945 6.09991 20.07 5.49016 21.69 5.18156C22.23 5.07952 22.8225 5.00735 23.4725 4.99241C24.1225 4.97997 24.8275 5.02228 25.585 5.14174C27.1 5.38315 28.83 5.93814 30.7725 6.98341C31.7425 7.50853 32.7675 8.15312 33.8425 8.94454C34.1175 8.72055 34.37 8.54136 34.37 8.54136C34.37 8.54136 33.88 8.05108 33.0025 7.33183C32.1275 6.6101 30.87 5.6594 29.335 4.73607C28.5274 4.2467 27.6946 3.79977 26.84 3.39713C25.9254 2.96837 24.9824 2.60249 24.0175 2.30209C23.0166 1.993 21.9913 1.76822 20.9525 1.63012C20.4215 1.56464 19.8874 1.52726 19.3525 1.51813H19.35ZM24.565 5.62456L24.5075 6.57774C25.0075 6.59268 25.5075 6.65241 26.0075 6.75693L26.07 5.82366C25.5736 5.72222 25.0707 5.65569 24.565 5.62456ZM21.02 5.98791C20.5659 6.12038 20.1209 6.28165 19.6875 6.47073L20.035 7.51102C20.46 7.30256 20.9004 7.127 21.3525 6.9859L21.02 5.98791ZM6 6.04764C5.6075 6.42344 5.225 6.80173 4.8775 7.18002L6.045 8.17552C6.3625 7.76985 6.7125 7.3617 7.075 6.9859L6 6.04764ZM16.85 8.28253C16.5 8.60109 16.185 8.94702 15.9125 9.29545L16.64 10.3781C16.8975 10.0023 17.2 9.65632 17.535 9.30789L16.85 8.28253ZM19.3225 10.2412V21H22.2325V18.4042L24.75 21H29.0525L25.675 17.6054C25.675 17.6054 28.325 17.3814 28.325 13.9718C28.325 10.5622 25.1125 10.2412 25.1125 10.2412H19.3225ZM32.5525 10.3208C30.4475 10.3208 29.7375 12.2197 29.7375 13.1256V21H32.69V19.1135H35.465V21H38.33V13.1256C38.33 10.831 36.235 10.3208 35.5075 10.3208H32.5525ZM39.6775 10.3208V20.9975H42.7525V10.3208H39.6775ZM44.01 10.3208V21H51.21V18.2375H47.07V10.3208H44.01ZM54.9075 10.3208C53.695 10.3208 52.075 11.3138 52.075 13.1679V14.1211C52.075 15.9777 53.68 16.9259 54.9075 16.9259C58.3175 16.9409 54.09 16.9259 57.24 16.9259V18.2524L52.2275 18.2674V21H57.1825C58.1975 21 59.94 20.2608 60 18.1952V17.14C60 15.373 58.5475 14.3302 57.1825 14.3302H54.7125V13.0659H59.605V10.3208H54.9075ZM14.17 12.491C13.9851 13.0339 13.8332 13.5874 13.715 14.1485L14.94 15.1141C15.0025 14.5268 15.1125 13.9394 15.265 13.3496L14.17 12.491ZM33.5975 12.8643H34.615C35.4325 12.8643 35.45 13.4516 35.45 13.4516V16.0648H32.675V13.4516C32.675 13.4516 32.6725 12.8643 33.5975 12.8643ZM22.2325 12.9415H24.565C24.565 12.9415 25.22 13.1829 25.22 14.1609C25.22 15.144 24.55 15.4028 24.55 15.4028H22.2325V12.9415ZM0.7575 13.0933C0.47 13.7403 0.1525 14.4944 0 14.9026L1.7425 15.5372C1.9425 15.0245 2.2575 14.2829 2.5 13.7254L0.7575 13.0933ZM13.4875 17.9787C13.5175 18.7776 13.595 19.4321 13.6725 19.8826L15.4875 20.5296C15.3348 19.8831 15.2146 19.2294 15.1275 18.571L13.4875 17.9787Z" fill="white"/>
</svg>
